max v2;#N vpatcher 200 200 420 232;#P window setfont "Sans Serif" 9.;#P number 66 89 35 9 0 0 0 3 0 0 0 221 221 221 222 222 222 0 0 0;#P number 221 140 35 9 0 0 0 3 255 255 255 22 98 127 222 222 222 0 0 0;#P number 259 140 35 9 0 0 0 3 255 255 255 22 98 127 222 222 222 0 0 0;#P newex 156 177 135 196617 sprintf set bcf_ctrl.%ld.%ld;#P newex 96 360 53 196617 autopattr;#X prestore _ctrl_item_ 1 0 0;#X prestore _scale.max_ 1 0 1.;#X prestore _scale.min_ 1 0 0.;#P objectname u641000090;#P hidden message 178 -30 35 196617 select;#P hidden message 142 -30 35 196617 select;#P newex 12 51 100 196617 sprintf set %ld_ctrl;#P newex 157 60 74 196617 route front int;#P newex 12 136 45 196617 gate 1 1;#P hidden message 73 23 375 196617 window flags grow \, savewindow 0 \, window size 200 200 820 632 \, window exec;#P hidden message 72 7 385 196617 window flags nogrow \, savewindow 1 \, window size 200 200 420 232 \, window exec;#P hidden newex 157 103 39 196617 t front;#N thispatcher;#Q window flags nogrow close zoom nofloat;#Q window size 200 200 420 232;#Q window title;#Q window exec;#Q savewindow 1;#Q end;#P hidden newobj 157 128 60 196617 thispatcher;#P hidden inlet 157 32 15 0;#P hidden newex 311 -18 27 196617 0;#P hidden newex 339 -18 27 196617 1;#P hidden newex 311 -49 45 196617 loadbang;#P flonum 113 10 48 9 0 0 0 3 255 255 255 22 98 127 222 222 222 0 0 0;#P objectname _scale.min_;#P flonum 160 10 48 9 0 0 0 3 255 255 255 10 92 105 222 222 222 0 0 0;#P objectname _scale.max_;#P hidden outlet 12 182 15 0;#P hidden newex 12 158 80 196617 scale 0. 1. 0. 1.;#P window setfont Verdana 9.;#P user ubumenu 12 10 102 472055817 0 1 1 0;#X setrgb 255 255 255 42 55 124 11 19 82 4 4 4 141 141 141 112 112 112;#X add off;#X add 1_dpf;#X add 2_dpf;#X add 3_dpf;#X add 4_dpf;#X add 5_dpf;#X add 6_dpf;#X add 7_dpf;#X add 8_dpf;#X add 9_dpf;#X add 10_dpf;#X add 11_dpf;#X add 12_dpf;#X add 13_dpf;#X add 14_dpf;#X add 15_dpf;#X add 16_dpf;#X add 1_pad;#X add 2_pad;#X add 3_pad;#X add 4_pad;#X add 5_pad;#X add 6_pad;#X add 7_pad;#X add 8_pad;#X add 9_pad;#X add 10_pad;#X add 11_pad;#X add 12_pad;#X add 13_pad;#X add 14_pad;#X add 15_pad;#X add 16_pad;#X add 17_pad;#X add 1_pad.heading;#X add 1_pad.inclination;#X add 2_pad.heading;#X add 2_pad.inclination;#X add 1_jst.x;#X add 1_jst.y;#X add 2_jst.x;#X add 2_jst.y;#X add 3_jst.x;#X add 3_jst.y;#X add LRC.symbol;#X add LRC.idx;#X add glove.adxl.x;#X add glove.adxl.y;#X add glove.finger.0;#X add glove.finger.1;#X add glove.finger.2;#X add glove.finger.3;#X add glove.finger.4;#X add P5_x;#X add P5_y;#X add P5_z;#X add P5_finger.1;#X add P5_finger.2;#X add P5_finger.3;#X add P5_finger.4;#X add P5_finger.5;#X add 1_qlist;#X add 2_qlist;#X add 3_qlist;#X add 4_qlist;#X add 5_qlist;#X add 6_qlist;#X add 7_qlist;#X add 8_qlist;#X add 9_qlist;#X add 10_qlist;#X prefix_set 0 0  0;#P objectname _ctrl_item_;#P window setfont "Sans Serif" 9.;#P hidden newex 12 82 43 196617 receive;#P comment 264 134 100 196617 bcf;#B frgb 22 98 127;#P user panel 0 0 220 34;#X brgb 162 186 218;#X frgb 0 0 0;#X border 0;#X rounded 0;#X shadow 0;#X done;#P hidden connect 3 0 18 0;#P connect 22 0 2 0;#P connect 18 0 2 0;#P connect 17 1 16 0;#P connect 16 0 4 0;#P hidden connect 4 0 5 0;#P connect 2 0 16 1;#P hidden connect 7 0 4 3;#P hidden connect 3 0 25 0;#P hidden connect 6 0 4 4;#P hidden connect 20 0 7 0;#P hidden connect 10 0 7 0;#P hidden connect 7 1 19 0;#P hidden connect 24 0 22 0;#P connect 11 0 17 0;#P connect 17 0 13 0;#P hidden connect 15 0 12 0;#P hidden connect 14 0 12 0;#P hidden connect 13 0 12 0;#P hidden connect 19 0 6 0;#P hidden connect 9 0 6 0;#P hidden connect 6 1 20 0;#P hidden connect 23 0 22 1;#P hidden connect 8 0 10 0;#P hidden connect 8 0 9 0;#P pop;