max v2;#N vpatcher 428 89 1160 759;#P window setfont "Sans Serif" 9.;#P newex 179 307 31 196617 sel 0;#P newex 420 102 44 196617 route lp;#P newex 150 177 27 196617 1;#P newex 150 151 31 196617 sel 1;#P flonum 99 60 35 9 0 0 0 3 0 0 0 221 221 221 222 222 222 0 0 0;#P number 341 146 35 9 0 0 0 3 0 0 0 221 221 221 222 222 222 0 0 0;#P newex 368 101 50 196617 zl slice 1;#P newex 368 60 45 196617 loadbang;#P newex 368 80 63 196617 patcherargs;#P outlet 60 351 15 0;#N comlet slide_factor (lowpass value);#P inlet 341 60 15 0;#P newex 199 60 61 196617 r mainpulse;#P newex 150 220 59 196617 gate;#P newex 128 177 21 196617 t 0;#P newex 60 282 129 196617 slidelist_0.19 200 0.0001;#N vpatcher 502 306 712 651;#N comlet main pulse;#P inlet 133 37 15 0;#N comlet active info;#P outlet 135 269 15 0;#P outlet 40 269 15 0;#N comlet bline ramptime;#P inlet 85 37 15 0;#P window setfont "Sans Serif" 9.;#P newex 40 65 29 196617 t f 1;#P newex 60 234 27 196617 0;#P newex 59 179 27 196617 gate;#P newex 40 144 55 196617 pack 0. 30;#P newex 40 208 30 196617 bline;#N comlet;#P inlet 40 37 15 0;#P connect 0 0 5 0;#P connect 5 0 2 0;#P connect 3 0 1 0;#P connect 2 0 1 0;#P fasten 1 0 7 0 45 247 45 247;#P connect 5 1 3 0;#P fasten 4 0 3 0 65 255 95 255 95 173 64 173;#P connect 1 1 4 0;#P connect 9 0 3 1;#P connect 6 0 2 1;#P fasten 4 0 8 0 65 260 140 260;#P fasten 5 1 8 0 64 136 140 136;#P pop;#P newobj 60 100 44 196617 p bliney;#N comlet x-value;#P inlet 60 60 15 0;#P newex 60 252 27 196617 f;#P connect 13 0 2 0;#P connect 1 0 2 0;#P connect 5 0 0 0;#P connect 2 0 0 0;#P connect 0 0 3 0;#P connect 3 0 8 0;#P connect 6 0 2 2;#P fasten 17 0 4 0 184 331 221 331 221 173 133 173;#P connect 2 1 14 0;#P connect 14 0 15 0;#P connect 15 0 5 0;#P connect 4 0 5 0;#P fasten 12 0 3 1 346 275 184 275;#P connect 3 1 17 0;#P connect 6 0 5 1;#P connect 7 0 12 0;#P connect 11 1 12 0;#P connect 16 0 12 0;#P connect 10 0 9 0;#P connect 9 0 11 0;#P connect 9 1 16 0;#P pop;