max v2;#N vpatcher 428 89 921 546;#P window setfont "Sans Serif" 9.;#P flonum 325 242 48 9 0 0 0 3 0 0 0 221 221 221 222 222 222 0 0 0;#P flonum 374 242 66 9 0 0 0 3 0 0 0 221 221 221 222 222 222 0 0 0;#N comlet thresh_value (delta below which target value is set);#P inlet 270 45 15 0;#P window linecount 1;#P message 224 243 45 196617 slide \$1;#P message 270 242 53 196617 thresh \$1;#P newex 307 194 63 196617 unpack 0. 0.;#P toggle 60 200 15 0;#P newex 127 100 22 196617 b 1;#P newex 127 119 27 196617 1;#P newex 307 107 45 196617 loadbang;#P newex 307 127 63 196617 patcherargs;#P outlet 60 351 15 0;#N comlet slide_factor (lowpass value);#P inlet 224 45 15 0;#P newex 77 200 61 196617 r mainpulse;#P newex 60 222 27 196617 gate;#P newex 60 282 118 196617 slidelist 100. 0.000001;#N comlet x-value;#P inlet 108 45 15 0;#P newex 60 254 58 196617 zl reg;#P fasten 2 1 11 0 173 301 185 301 185 196 65 196;#P connect 9 0 11 0;#P connect 11 0 3 0;#P connect 3 0 0 0;#P connect 0 0 2 0;#P connect 2 0 6 0;#P connect 4 0 3 1;#P connect 1 0 0 1;#P connect 1 0 10 0;#P connect 10 0 9 0;#P connect 13 0 2 1;#P connect 14 0 2 1;#P connect 12 0 14 0;#P connect 5 0 14 0;#P connect 12 1 13 0;#P connect 15 0 13 0;#P connect 8 0 7 0;#P connect 7 0 12 0;#P connect 12 0 17 0;#P connect 12 1 16 0;#P pop;